<?xml version="1.0" encoding="iso-8859-1"?>
<!-- Generator: Adobe Illustrator 19.0.0, SVG Export Plug-In . SVG Version: 6.00 Build 0)  -->
<svg version="1.1" id="Capa_1" xmlns="http://www.w3.org/2000/svg" xmlns:xlink="http://www.w3.org/1999/xlink" x="0px" y="0px"
	 viewBox="0 0 512 512" style="enable-background:new 0 0 512 512;" xml:space="preserve">
<g>
	<g>
		<g>
			<path d="M444.957,32.34H67.037C30.077,32.346,0,62.417,0,99.383v217.591c0,36.966,30.077,67.043,67.043,67.043h200.32v58.69
				c0,20.381,16.584,36.954,36.966,36.954h111.426c20.381,0,36.954-16.578,36.954-36.954v-59.176
				C486.03,379.673,512,351.315,512,316.974V99.383C512,62.417,481.923,32.34,444.957,32.34z M433.142,442.706
				c0,9.592-7.794,17.386-17.386,17.386H304.323c-9.592,0-17.399-7.794-17.399-17.386V338.339h146.217V442.706z M320.185,318.772
				v-37.118c0-20.624,17.878-37.403,39.851-37.403c21.967,0,39.839,16.779,39.839,37.403v37.118H320.185z M492.439,316.98
				c0,23.522-17.241,42.962-39.724,46.692v-35.113c0-5.407-4.374-9.781-9.781-9.781h-23.486V281.66
				c0-31.413-26.645-56.971-59.407-56.971s-59.419,25.557-59.419,56.971v37.118H277.15c-5.407,0-9.781,4.374-9.781,9.781v35.897
				H67.043c-26.177,0-47.475-21.299-47.475-47.475V185.039h472.871V316.98z M492.439,165.472H19.567v-33.394h472.871V165.472z
				 M492.439,112.517H19.567V99.389c0-26.183,21.293-47.475,47.475-47.475h377.921c26.177,0,47.476,21.299,47.476,47.475V112.517z"
				/>
			<path d="M68.476,326.761h156.028c5.407,0,9.781-4.374,9.781-9.781s-4.374-9.781-9.781-9.781H68.476
				c-5.407,0-9.781,4.374-9.781,9.781S63.064,326.761,68.476,326.761z"/>
			<path d="M350.255,412.739v21.821c0,5.407,4.374,9.781,9.781,9.781s9.781-4.374,9.781-9.781v-21.821
				c12.581-4.143,21.742-15.868,21.742-29.816c0.006-17.392-14.136-31.529-31.523-31.529c-17.38,0-31.517,14.142-31.517,31.529
				C328.519,396.871,337.68,408.596,350.255,412.739z M360.036,370.962c6.591,0,11.961,5.37,11.961,11.961
				s-5.37,11.962-11.961,11.962c-6.591,0-11.949-5.37-11.949-11.962C348.087,376.332,353.445,370.962,360.036,370.962z"/>
		</g>
	</g>
</g>
<g>
</g>
<g>
</g>
<g>
</g>
<g>
</g>
<g>
</g>
<g>
</g>
<g>
</g>
<g>
</g>
<g>
</g>
<g>
</g>
<g>
</g>
<g>
</g>
<g>
</g>
<g>
</g>
<g>
</g>
</svg>
