<svg id="Capa_1" enable-background="new 0 0 512 512" height="512" viewBox="0 0 512 512" width="512" xmlns="http://www.w3.org/2000/svg"><g><path d="m512 380.448c0-32.633-20.658-61.904-51.404-72.837l-113.49-40.359v-26.198c27.75-20 45.852-52.589 45.852-89.331v-41.672c0-60.681-49.369-110.051-110.052-110.051s-110.052 49.37-110.052 110.052v41.672c0 36.742 18.102 69.331 45.852 89.331v26.198l-82.621 29.381c-8.562-2.161-17.521-3.314-26.744-3.314-60.291 0-109.341 49.05-109.341 109.34s49.05 109.34 109.34 109.34c39.795 0 74.688-21.373 93.816-53.241h308.844zm-229.094-350.467c42.084 0 76.665 32.643 79.812 73.935-20.083-.619-36.234-17.138-36.234-37.368h-29.982c0 20.621-16.777 37.398-37.398 37.398h-56.014c3.134-41.306 37.721-73.965 79.816-73.965zm-80.071 121.743v-17.796h56.27c21.139 0 40.026-9.793 52.389-25.072 12.185 15.059 30.712 24.772 51.483 25.049v17.819c0 44.151-35.92 80.071-80.071 80.071s-80.071-35.92-80.071-80.071zm80.071 110.052c11.942 0 23.443-1.919 34.219-5.453v16.532l-34.241 48.924-34.197-48.684v-16.771c10.776 3.533 22.277 5.452 34.219 5.452zm-173.566 220.243c-43.759 0-79.359-35.6-79.359-79.359 0-43.758 35.6-79.358 79.359-79.358 43.758 0 79.358 35.6 79.358 79.358.001 43.758-35.599 79.359-79.358 79.359zm372.678-53.241h-54.344v-39.416h-29.982v39.416h-182.173c2.06-8.373 3.161-17.119 3.161-26.118 0-35.942-17.435-67.886-44.288-87.828l53.589-19.057 54.947 78.228 54.781-78.271 112.842 40.128c18.822 6.693 31.468 24.612 31.468 44.589v48.329z"/><path d="m83.771 383.062h14.911v63.343h29.982v-93.324h-44.893z"/></g></svg>