<svg enable-background="new 0 0 140 140" height="512" viewBox="0 0 140 140" width="512" xmlns="http://www.w3.org/2000/svg"><circle cx="70" cy="70" fill="#509fd7" r="64"/><path d="m133.9000244 66.4501953c.0599976 1.1699219.0999756 2.3598633.0999756 3.5498047 0 30.8701172-21.8599854 56.6298828-50.9400024 62.6601562l-36.0100098-36.1201171c-.8999634-.8398438-1.7999878-1.7001953-2.6900024-2.5898438-20.289978-20.2900391-28.6300049-44.8500977-18.6300049-54.8500977 2.0300293-2.0302734 4.6799927-3.2802734 7.75-3.8500977 1.6400146-.2998047 3.4000244-.4199219 5.2600098-.3398438 1.1000366.0498047 2.1099854.5400391 2.8200073 1.3198242l21.0900269 21.0898438 19.7799683-19.7797852 11.3699951 11.3701172 2.7600098-2.7602539-3.6799927-3.6801758 16.1699829-.8696289z" opacity=".1"/><path d="m103.0700073 104.8300781c-.5700073 3.0698242-1.8400269 5.7099609-3.8699951 7.7397461-10 10-34.5499878 1.6601562-54.8400269-18.6196289-20.289978-20.2900391-28.6300049-44.8500977-18.6300049-54.8500977 2.0300293-2.0302734 4.6799927-3.2802734 7.75-3.8500977 1.6400146-.2998047 3.4000244-.4199219 5.2600098-.3398438 1.6000366.0698242 3.0200195 1.0595703 3.6000366 2.5498047l7.0199585 18.0498047c.6400147 1.6503907.1199952 3.5302736-1.2799682 4.6103517-.9400024.7397461-1.8800049 1.4697266-2.8099976 2.199707-.1799927.1303711-.3300171.300293-.4899902.4702148-1.5600586 1.6699219-2.0400391 4.7001953-.8300171 6.7797852 6.039978 10.2099609 14.5700073 18.7402344 24.789978 24.7802734 2.0700073 1.2197266 5.1000366.7397461 6.7800293-.8300781.1599731-.1601562.3299561-.3100586.4699707-.4799805.7800293-1.0200195 1.5700073-2.0302734 2.3699951-3.0498047 1.0800171-1.4003906 2.960022-1.9101562 4.6000366-1.2705078l17.8699951 6.9404297c1.4199829.5595703 2.4400024 1.8696289 2.539978 3.3896484.130005 2.0600587.0300294 3.9902345-.2999877 5.7802735z" fill="#ececec"/><path d="m42.34412 37.4613342c-.5812378-1.494873-2.0023804-2.4851074-3.6047363-2.5532227-1.8617554-.0793457-3.6188354.0375977-5.2576904.342041l11.3015137 27.5361328c.1547241-.1655273.3077393-.3339844.4833984-.4707031.9361572-.7282715 1.8752441-1.4587402 2.8170166-2.1916504 1.3952637-1.0859375 1.9191895-2.9643555 1.2785645-4.6120605z" fill="#dad7dc"/><path d="m103.3666382 99.0521545c-.0979614-1.5234375-1.1134033-2.8359375-2.5362549-3.3891602l-17.866394-6.9470215c-1.6477051-.640625-3.5213013-.1230469-4.6069946 1.2722168-.7929688 1.019043-1.583252 2.0349121-2.3706055 3.0471191-.1365967.1757812-.3049316.3288574-.4703979.4836426l27.5564575 11.3098145c.3309325-1.7871093.4262695-3.722412.2941894-5.7766113z" fill="#dad7dc"/><path d="m82.4315414 37.5450096-20.8497123 20.8497086-3.6796799-3.6796799-.8669014 16.1686592 16.1685715-.8669891-3.6797714-3.6797714 20.8497161-20.8497086z" fill="#344e5c"/><path d="m83.6543655 74.9422226 20.8497162-20.8497124 3.6796799 3.6796799.8669052-16.1686592-16.1685715.8669929 3.6797638 3.6797676-20.8497085 20.8497086z" fill="#ffd25a"/></svg>